<?xml version="1.0" standalone="no"?>
<!DOCTYPE svg PUBLIC "-//W3C//DTD SVG 20010904//EN"
 "http://www.w3.org/TR/2001/REC-SVG-20010904/DTD/svg10.dtd">
<svg version="1.0" xmlns="http://www.w3.org/2000/svg"
 width="512.000000pt" height="512.000000pt" viewBox="0 0 512.000000 512.000000"
 preserveAspectRatio="xMidYMid meet">
<metadata>
Created by potrace 1.11, written by Peter Selinger 2001-2013
</metadata>
<g transform="translate(0.000000,512.000000) scale(0.100000,-0.100000)"
fill="#000000" stroke="none">
<path d="M3455 5014 c-82 -53 -202 -131 -265 -172 -63 -41 -116 -74 -117 -73
-2 0 -28 -27 -59 -62 -30 -34 -69 -77 -85 -94 -23 -25 -27 -33 -14 -33 15 0
15 -2 1 -15 -8 -8 -24 -15 -36 -15 -13 0 -19 -4 -14 -11 3 -6 19 -9 35 -7 16
3 30 1 31 -4 2 -5 34 5 72 22 37 17 70 29 72 27 2 -2 -78 -40 -179 -85 l-182
-82 79 79 c44 44 84 77 89 74 6 -3 7 -1 3 6 -5 7 25 45 78 100 l86 87 -31 30
c-17 16 -83 89 -146 161 -64 73 -124 135 -134 138 -24 8 -499 -13 -579 -26
-56 -9 -415 -93 -675 -160 -44 -11 -97 -31 -119 -45 -21 -14 -105 -91 -186
-170 -140 -137 -170 -160 -170 -132 0 17 -41 -24 -260 -262 -211 -229 -310
-346 -310 -364 0 -6 -7 -68 -15 -138 -10 -81 -12 -135 -6 -150 5 -13 30 -42
55 -66 25 -23 46 -48 46 -55 0 -8 -16 -50 -35 -94 -19 -45 -35 -92 -35 -105 0
-35 57 -173 73 -176 13 -3 94 42 242 131 69 43 93 45 170 16 40 -15 56 -27 59
-42 3 -12 7 -125 9 -252 l5 -230 65 -137 65 -137 -19 -24 c-29 -38 -48 -211
-37 -339 16 -170 117 -768 204 -1208 30 -149 18 -132 225 -324 106 -97 209
-186 230 -197 21 -10 199 -91 396 -180 197 -88 382 -171 412 -185 29 -13 63
-24 74 -24 11 0 203 93 426 206 l405 206 188 180 c149 144 190 188 197 217 5
20 42 234 82 476 l72 440 -17 105 c-23 147 -21 178 18 278 52 135 52 121 0
220 l-47 90 73 163 c65 146 74 173 81 249 4 47 22 146 39 220 49 209 49 211 6
275 -20 30 -36 59 -36 64 0 17 33 21 124 15 l91 -7 68 51 67 51 36 -15 c20 -8
42 -13 49 -10 14 5 135 158 155 195 23 44 2 140 -89 408 -63 183 -105 290
-147 368 l-59 110 -106 75 c-250 177 -678 470 -686 470 -4 0 -75 -43 -158 -96z
m-315 -414 c-8 -5 -19 -10 -25 -10 -5 0 -3 5 5 10 8 5 20 10 25 10 6 0 3 -5
-5 -10z m-179 -40 c6 0 7 -5 4 -10 -11 -17 -25 0 -24 28 2 24 2 24 6 5 2 -13
9 -23 14 -23z m59 30 c0 -5 -5 -10 -11 -10 -5 0 -7 5 -4 10 3 6 8 10 11 10 2
0 4 -4 4 -10z m249 -861 c339 -73 620 -136 626 -141 5 -4 9 -32 10 -61 l0 -52
-305 -7 c-447 -11 -1433 -13 -1518 -4 l-74 8 38 39 c21 21 44 39 52 39 8 0
129 70 270 155 141 85 263 155 271 155 8 0 292 -59 630 -131z m-377 -743 c109
-12 200 -25 204 -29 3 -3 9 -56 12 -117 l5 -110 126 0 c69 0 150 3 179 6 l52
7 0 71 c0 113 3 117 64 110 28 -3 109 -9 181 -13 115 -8 131 -11 143 -30 9
-12 25 -21 41 -21 54 0 54 0 47 -221 -9 -271 -6 -259 -71 -297 -30 -18 -56
-41 -60 -51 -4 -15 -24 -20 -118 -30 -153 -15 -154 -15 -307 19 -115 25 -136
27 -150 15 -8 -7 -103 -40 -210 -72 -184 -55 -201 -58 -290 -56 -80 1 -120 9
-255 48 l-160 47 -225 5 c-159 3 -280 0 -413 -11 -104 -9 -210 -16 -236 -16
l-47 0 -43 76 -44 76 -63 -7 c-35 -4 -65 -5 -65 -3 -4 11 -26 464 -23 467 2 2
37 7 76 10 52 5 82 13 103 28 27 20 51 23 258 35 l227 13 1 -35 c1 -19 3 -61
4 -92 1 -32 3 -60 6 -62 2 -2 86 -7 187 -11 l182 -7 0 23 c0 61 11 213 15 217
7 7 324 39 400 40 39 1 159 -9 267 -22z m132 -1471 c60 -3 110 -6 112 -8 2 -3
-35 -289 -40 -303 -3 -6 -98 -46 -213 -88 -114 -42 -218 -81 -231 -86 -17 -7
-62 -4 -155 11 -239 38 -360 58 -363 62 -7 6 -24 245 -24 330 l0 77 53 1 c28
1 133 5 232 9 174 6 401 5 629 -5z"/>
<path d="M2826 4484 c-3 -7 3 -10 15 -7 26 7 32 19 9 19 -11 0 -22 -6 -24 -12z"/>
</g>
</svg>
